999
dxfrw 0.6.3
  0
SECTION
  2
HEADER
  9
$ACADVER
  1
AC1021
  9
$DWGCODEPAGE
  3
ANSI_1252
  9
$INSBASE
 10
0
 20
0
 30
0
  9
$EXTMIN
 10
1e+20
 20
1e+20
 30
1e+20
  9
$EXTMAX
 10
-1e+20
 20
-1e+20
 30
-1e+20
  9
$LIMMIN
 10
0
 20
0
  9
$LIMMAX
 10
420
 20
297
  9
$ORTHOMODE
 70
    0
  9
$REGENMODE
 70
    1
  9
$FILLMODE
 70
    1
  9
$QTEXTMODE
 70
    0
  9
$MIRRTEXT
 70
    0
  9
$LTSCALE
 40
1
  9
$ATTMODE
 70
    0
  9
$TEXTSIZE
 40
2.5
  9
$TRACEWID
 40
15.68
  9
$TEXTSTYLE
  7
STANDARD
  9
$CLAYER
  8
0
  9
$CELTYPE
  6
BYLAYER
  9
$CECOLOR
 62
  256
  9
$CELTSCALE
 40
1
  9
$DISPSILH
 70
    0
  9
$DIMSCALE
 40
1
  9
$DIMASZ
 40
2.5
  9
$DIMEXO
 40
0.625
  9
$DIMDLI
 40
3.75
  9
$DIMRND
 40
0
  9
$DIMDLE
 40
0
  9
$DIMEXE
 40
1.25
  9
$DIMTP
 40
0
  9
$DIMTM
 40
0
  9
$DIMTXT
 40
2.5
  9
$DIMCEN
 40
2.5
  9
$DIMTSZ
 40
0
  9
$DIMTOL
 70
    0
  9
$DIMLIM
 70
    0
  9
$DIMTIH
 70
    0
  9
$DIMTOH
 70
    0
  9
$DIMSE1
 70
    0
  9
$DIMSE2
 70
    0
  9
$DIMTAD
 70
    1
  9
$DIMZIN
 70
    8
  9
$DIMBLK
  1

  9
$DIMASO
 70
    1
  9
$DIMSHO
 70
    1
  9
$DIMPOST
  1

  9
$DIMAPOST
  1

  9
$DIMALT
 70
    0
  9
$DIMALTD
 70
    3
  9
$DIMALTF
 40
0.03937
  9
$DIMLFAC
 40
1
  9
$DIMTOFL
 70
    1
  9
$DIMTVP
 40
0
  9
$DIMTIX
 70
    0
  9
$DIMSOXD
 70
    0
  9
$DIMSAH
 70
    0
  9
$DIMBLK1
  1

  9
$DIMBLK2
  1

  9
$DIMSTYLE
  2
STANDARD
  9
$DIMCLRD
 70
    0
  9
$DIMCLRE
 70
    0
  9
$DIMCLRT
 70
    0
  9
$DIMTFAC
 40
1
  9
$DIMGAP
 40
0.625
  9
$DIMJUST
 70
    0
  9
$DIMSD1
 70
    0
  9
$DIMSD2
 70
    0
  9
$DIMTOLJ
 70
    0
  9
$DIMTZIN
 70
    8
  9
$DIMALTZ
 70
    0
  9
$DIMALTTZ
 70
    0
  9
$DIMUPT
 70
    0
  9
$DIMDEC
 70
    2
  9
$DIMTDEC
 70
    2
  9
$DIMALTU
 70
    2
  9
$DIMALTTD
 70
    3
  9
$DIMTXSTY
  7
STANDARD
  9
$DIMAUNIT
 70
    0
  9
$DIMADEC
 70
    0
  9
$DIMALTRND
 40
0
  9
$DIMAZIN
 70
    0
  9
$DIMDSEP
 70
   44
  9
$DIMATFIT
 70
    3
  9
$DIMFRAC
 70
    0
  9
$DIMLDRBLK
  1
STANDARD
  9
$DIMLUNIT
 70
    2
  9
$DIMLWD
 70
   -2
  9
$DIMLWE
 70
   -2
  9
$DIMTMOVE
 70
    0
  9
$DIMFXL
 40
1
  9
$DIMFXLON
 70
    0
  9
$DIMJOGANG
 40
0.7854
  9
$DIMTFILL
 70
    0
  9
$DIMTFILLCLR
 70
    0
  9
$DIMARCSYM
 70
    0
  9
$DIMLTYPE
  6

  9
$DIMLTEX1
  6

  9
$DIMLTEX2
  6

  9
$LUNITS
 70
    2
  9
$LUPREC
 70
    4
  9
$SKETCHINC
 40
1
  9
$FILLETRAD
 40
0
  9
$AUNITS
 70
    0
  9
$AUPREC
 70
    2
  9
$MENU
  1
.
  9
$ELEVATION
 40
0
  9
$PELEVATION
 40
0
  9
$THICKNESS
 40
0
  9
$LIMCHECK
 70
    0
  9
$CHAMFERA
 40
0
  9
$CHAMFERB
 40
0
  9
$CHAMFERC
 40
0
  9
$CHAMFERD
 40
0
  9
$SKPOLY
 70
    0
  9
$USRTIMER
 70
    1
  9
$ANGBASE
 50
0
  9
$ANGDIR
 70
    0
  9
$PDMODE
 70
   34
  9
$PDSIZE
 40
0
  9
$PLINEWID
 40
0
  9
$SPLFRAME
 70
    0
  9
$SPLINETYPE
 70
    2
  9
$SPLINESEGS
 70
    8
  9
$HANDSEED
  5
20000
  9
$SURFTAB1
 70
    6
  9
$SURFTAB2
 70
    6
  9
$SURFTYPE
 70
    6
  9
$SURFU
 70
    6
  9
$SURFV
 70
    6
  9
$UCSBASE
  2

  9
$UCSNAME
  2

  9
$UCSORG
 10
0
 20
0
 30
0
  9
$UCSXDIR
 10
1
 20
0
 30
0
  9
$UCSYDIR
 10
0
 20
1
 30
0
  9
$UCSORTHOREF
  2

  9
$UCSORTHOVIEW
 70
    0
  9
$UCSORGTOP
 10
0
 20
0
 30
0
  9
$UCSORGBOTTOM
 10
0
 20
0
 30
0
  9
$UCSORGLEFT
 10
0
 20
0
 30
0
  9
$UCSORGRIGHT
 10
0
 20
0
 30
0
  9
$UCSORGFRONT
 10
0
 20
0
 30
0
  9
$UCSORGBACK
 10
0
 20
0
 30
0
  9
$PUCSBASE
  2

  9
$PUCSNAME
  2

  9
$PUCSORG
 10
0
 20
0
 30
0
  9
$PUCSXDIR
 10
1
 20
0
 30
0
  9
$PUCSYDIR
 10
0
 20
1
 30
0
  9
$PUCSORTHOREF
  2

  9
$PUCSORTHOVIEW
 70
    0
  9
$PUCSORGTOP
 10
0
 20
0
 30
0
  9
$PUCSORGBOTTOM
 10
0
 20
0
 30
0
  9
$PUCSORGLEFT
 10
0
 20
0
 30
0
  9
$PUCSORGRIGHT
 10
0
 20
0
 30
0
  9
$PUCSORGFRONT
 10
0
 20
0
 30
0
  9
$PUCSORGBACK
 10
0
 20
0
 30
0
  9
$USERI1
 70
    0
  9
$USERI2
 70
    0
  9
$USERI3
 70
    0
  9
$USERI4
 70
    0
  9
$USERI5
 70
    0
  9
$USERR1
 40
0
  9
$USERR2
 40
0
  9
$USERR3
 40
0
  9
$USERR4
 40
0
  9
$USERR5
 40
0
  9
$WORLDVIEW
 70
    1
  9
$SHADEDGE
 70
    3
  9
$SHADEDIF
 70
   70
  9
$TILEMODE
 70
    1
  9
$MAXACTVP
 70
   64
  9
$PINSBASE
 10
0
 20
0
 30
0
  9
$PLIMCHECK
 70
    0
  9
$PEXTMIN
 10
0
 20
0
 30
0
  9
$PEXTMAX
 10
0
 20
0
 30
0
  9
$PLIMMIN
 10
0
 20
0
  9
$PLIMMAX
 10
297
 20
210
  9
$UNITMODE
 70
    0
  9
$VISRETAIN
 70
    1
  9
$PLINEGEN
 70
    0
  9
$PSLTSCALE
 70
    1
  9
$TREEDEPTH
 70
 3020
  9
$CMLSTYLE
  2
Standard
  9
$CMLJUST
 70
    0
  9
$CMLSCALE
 40
20
  9
$PROXYGRAPHICS
 70
    1
  9
$MEASUREMENT
 70
    1
  9
$CELWEIGHT
370
   -1
  9
$ENDCAPS
280
    0
  9
$JOINSTYLE
280
    0
  9
$LWDISPLAY
290
    0
  9
$INSUNITS
 70
    0
  9
$HYPERLINKBASE
  1

  9
$STYLESHEET
  1

  9
$XEDIT
290
    1
  9
$CEPSNTYPE
380
    0
  9
$PSTYLEMODE
290
    1
  9
$EXTNAMES
290
    1
  9
$PSVPSCALE
 40
0
  9
$OLESTARTUP
290
    0
  9
$SORTENTS
280
  127
  9
$INDEXCTL
280
    0
  9
$HIDETEXT
280
    1
  9
$XCLIPFRAME
290
    0
  9
$HALOGAP
280
    0
  9
$OBSCOLOR
 70
  257
  9
$OBSLTYPE
280
    0
  9
$INTERSECTIONDISPLAY
280
    0
  9
$INTERSECTIONCOLOR
 70
  257
  9
$DIMASSOC
280
    1
  9
$PROJECTNAME
  1

  9
$CAMERADISPLAY
290
    0
  9
$LENSLENGTH
 40
50
  9
$CAMERAHEIGHT
 40
0
  9
$STEPSPERSEC
 40
2
  9
$STEPSIZE
 40
50
  9
$3DDWFPREC
 40
2
  9
$PSOLWIDTH
 40
5
  9
$PSOLHEIGHT
 40
80
  9
$LOFTANG1
 40
1.570796326794897
  9
$LOFTANG2
 40
1.570796326794897
  9
$LOFTMAG1
 40
0
  9
$LOFTMAG2
 40
0
  9
$LOFTPARAM
 70
    7
  9
$LOFTNORMALS
280
    1
  9
$LATITUDE
 40
1
  9
$LONGITUDE
 40
1
  9
$NORTHDIRECTION
 40
0
  9
$TIMEZONE
 70
-8000
  9
$LIGHTGLYPHDISPLAY
280
    1
  9
$TILEMODELIGHTSYNCH
280
    1
  9
$SOLIDHIST
280
    1
  9
$SHOWHIST
280
    1
  9
$DWFFRAME
280
    2
  9
$DGNFRAME
280
    0
  9
$REALWORLDSCALE
290
    1
  9
$INTERFERECOLOR
 62
    1
  9
$CSHADOW
280
    0
  9
$SHADOWPLANELOCATION
 40
0
  0
ENDSEC
  0
SECTION
  2
CLASSES
  0
ENDSEC
  0
SECTION
  2
TABLES
  0
TABLE
  2
VPORT
  5
8
330
0
100
AcDbSymbolTable
 70
    1
  0
VPORT
  5
31
330
2
100
AcDbSymbolTableRecord
100
AcDbViewportTableRecord
  2
*ACTIVE
 70
    0
 10
0
 20
0
 11
1
 21
1
 12
0.651828
 22
-0.16
 13
0
 23
0
 14
10
 24
10
 15
10
 25
10
 16
0
 26
0
 36
1
 17
0
 27
0
 37
0
 40
5.13732
 41
2.4426877
 42
50
 43
0
 44
0
 50
0
 51
0
 71
    0
 72
  100
 73
    1
 74
    3
 75
    0
 76
    0
 77
    0
 78
    0
281
    0
 65
    1
110
0
120
0
130
0
111
1
121
0
131
0
112
0
122
1
132
0
 79
    0
146
0
348
10020
 60
    7
 61
    5
292
1
282
    1
141
0
142
0
 63
  250
421
3358443
  0
ENDTAB
  0
TABLE
  2
LTYPE
  5
5
330
0
100
AcDbSymbolTable
 70
    4
  0
LTYPE
  5
14
330
5
100
AcDbSymbolTableRecord
100
AcDbLinetypeTableRecord
  2
ByBlock
 70
    0
  3

 72
   65
 73
    0
 40
0
  0
LTYPE
  5
15
330
5
100
AcDbSymbolTableRecord
100
AcDbLinetypeTableRecord
  2
ByLayer
 70
    0
  3

 72
   65
 73
    0
 40
0
  0
LTYPE
  5
16
330
5
100
AcDbSymbolTableRecord
100
AcDbLinetypeTableRecord
  2
Continuous
 70
    0
  3
Solid line
 72
   65
 73
    0
 40
0
  0
LTYPE
  5
32
330
5
100
AcDbSymbolTableRecord
100
AcDbLinetypeTableRecord
  2
DASHED
 70
    0
  3

 72
   65
 73
    2
 40
3
 49
1
 74
    0
 49
-2
 74
    0
  0
LTYPE
  5
33
330
5
100
AcDbSymbolTableRecord
100
AcDbLinetypeTableRecord
  2
DASHED
 70
    0
  3

 72
   65
 73
    2
 40
2
 49
1
 74
    0
 49
-1
 74
    0
  0
LTYPE
  5
34
330
5
100
AcDbSymbolTableRecord
100
AcDbLinetypeTableRecord
  2
DASHEDX2
 70
    0
  3

 72
   65
 73
    2
 40
3
 49
2
 74
    0
 49
-1
 74
    0
  0
LTYPE
  5
35
330
5
100
AcDbSymbolTableRecord
100
AcDbLinetypeTableRecord
  2
DASHDOT
 70
    0
  3

 72
   65
 73
    4
 40
3
 49
1
 74
    0
 49
-1
 74
    0
 49
0
 74
    0
 49
-1
 74
    0
  0
LTYPE
  5
36
330
5
100
AcDbSymbolTableRecord
100
AcDbLinetypeTableRecord
  2
DIVIDE
 70
    0
  3

 72
   65
 73
    6
 40
4
 49
1
 74
    0
 49
-1
 74
    0
 49
0
 74
    0
 49
-1
 74
    0
 49
0
 74
    0
 49
-1
 74
    0
  0
LTYPE
  5
37
330
5
100
AcDbSymbolTableRecord
100
AcDbLinetypeTableRecord
  2
DOT
 70
    0
  3

 72
   65
 73
    2
 40
1
 49
1
 74
    0
 49
0
 74
    0
  0
ENDTAB
  0
TABLE
  2
LAYER
  5
2
330
0
100
AcDbSymbolTable
 70
    1
  0
LAYER
  5
38
330
2
100
AcDbSymbolTableRecord
100
AcDbLayerTableRecord
  2
dimensions
 70
    0
 62
    7
  6
CONTINUOUS
370
   -3
390
F
  0
LAYER
  5
39
330
2
100
AcDbSymbolTableRecord
100
AcDbLayerTableRecord
  2
text
 70
    0
 62
    7
  6
CONTINUOUS
370
   -3
390
F
  0
LAYER
  5
3A
330
2
100
AcDbSymbolTableRecord
100
AcDbLayerTableRecord
  2
s001-#def-active-grp
 70
    0
 62
    7
  6
CONTINUOUS
370
   -3
390
F
  0
LAYER
  5
10
330
2
100
AcDbSymbolTableRecord
100
AcDbLayerTableRecord
  2
0
 70
    0
 62
    7
  6
CONTINUOUS
370
   -3
390
F
  0
ENDTAB
  0
TABLE
  2
STYLE
  5
3
330
0
100
AcDbSymbolTable
 70
    3
  0
STYLE
  5
3B
330
2
100
AcDbSymbolTableRecord
100
AcDbTextStyleTableRecord
  2
unicode
 70
    0
 40
0
 41
1
 50
0
 71
    0
 42
1
  3
unicode
  4

  0
STYLE
  5
3C
330
2
100
AcDbSymbolTableRecord
100
AcDbTextStyleTableRecord
  2
Standard
 70
    0
 40
0
 41
1
 50
0
 71
    0
 42
1
  3
txt
  4

  0
ENDTAB
  0
TABLE
  2
VIEW
  5
6
330
0
100
AcDbSymbolTable
 70
    0
  0
ENDTAB
  0
TABLE
  2
UCS
  5
7
330
0
100
AcDbSymbolTable
 70
    0
  0
ENDTAB
  0
TABLE
  2
APPID
  5
9
330
0
100
AcDbSymbolTable
 70
    1
  0
APPID
  5
12
330
9
100
AcDbSymbolTableRecord
100
AcDbRegAppTableRecord
  2
ACAD
 70
    0
  0
ENDTAB
  0
TABLE
  2
DIMSTYLE
  5
A
330
0
100
AcDbSymbolTable
 70
    1
100
AcDbDimStyleTable
 71
    1
  0
DIMSTYLE
105
3D
330
A
100
AcDbSymbolTableRecord
100
AcDbDimStyleTableRecord
  2
Standard
 70
    0
 40
1
 41
2.5
 42
0.625
 43
3.75
 44
1.25
 45
0
 46
0
 47
0
 48
0
140
2.5
141
2.5
142
0
143
0.03937007874015748
144
1
145
0
146
1
147
0.625
148
0
 71
    0
 72
    0
 73
    0
 74
    0
 75
    0
 76
    0
 77
    1
 78
    8
 79
    0
170
    0
171
    3
172
    1
173
    0
174
    0
175
    0
176
    0
177
    0
178
    0
179
    0
271
    2
272
    2
273
    2
274
    3
275
    0
276
    0
277
    2
278
   44
279
    0
280
    0
281
    0
282
    0
283
    0
284
    8
285
    0
286
    0
288
    0
289
    3
341

371
   -2
372
   -2
  0
ENDTAB
  0
TABLE
  2
BLOCK_RECORD
  5
1
330
0
100
AcDbSymbolTable
 70
    2
  0
BLOCK_RECORD
  5
1F
330
1
100
AcDbSymbolTableRecord
100
AcDbBlockTableRecord
  2
*Model_Space
 70
    0
280
    1
281
    0
  0
BLOCK_RECORD
  5
1E
330
1
100
AcDbSymbolTableRecord
100
AcDbBlockTableRecord
  2
*Paper_Space
 70
    0
280
    1
281
    0
  0
ENDTAB
  0
ENDSEC
  0
SECTION
  2
BLOCKS
  0
BLOCK
  5
20
330
1F
100
AcDbEntity
  8
0
100
AcDbBlockBegin
  2
*Model_Space
 70
    0
 10
0
 20
0
 30
0
  3
*Model_Space
  1

  0
ENDBLK
  5
21
330
1F
100
AcDbEntity
  8
0
100
AcDbBlockEnd
  0
BLOCK
  5
1C
330
1B
100
AcDbEntity
  8
0
100
AcDbBlockBegin
  2
*Paper_Space
 70
    0
 10
0
 20
0
 30
0
  3
*Paper_Space
  1

  0
ENDBLK
  5
1D
330
1F
100
AcDbEntity
  8
0
100
AcDbBlockEnd
  0
ENDSEC
  0
SECTION
  2
ENTITIES
  0
POLYLINE
  5
3E
100
AcDbEntity
  8
s001-#def-active-grp
  6
CONTINUOUS
 62
    7
420
    0
370
   40
100
AcDb2dPolyline
 10
0
 20
0
 30
0
 70
    0
  0
VERTEX
  5
3F
100
AcDbEntity
  8
s001-#def-active-grp
  6
CONTINUOUS
 62
    7
420
    0
370
   40
100
AcDbVertex
100
AcDb2dVertex
 10
-108.2210493827161
 20
75.79269135802467
 30
0
  0
VERTEX
  5
40
100
AcDbEntity
  8
s001-#def-active-grp
  6
CONTINUOUS
 62
    7
420
    0
370
   40
100
AcDbVertex
100
AcDb2dVertex
 10
-108.2210493827161
 20
-57.20730864197533
 30
0
  0
VERTEX
  5
41
100
AcDbEntity
  8
s001-#def-active-grp
  6
CONTINUOUS
 62
    7
420
    0
370
   40
100
AcDbVertex
100
AcDb2dVertex
 10
53.27895061728393
 20
-57.20730864197533
 30
0
  0
VERTEX
  5
42
100
AcDbEntity
  8
s001-#def-active-grp
  6
CONTINUOUS
 62
    7
420
    0
370
   40
100
AcDbVertex
100
AcDb2dVertex
 10
53.27895061728393
 20
75.79269135802467
 30
0
  0
VERTEX
  5
43
100
AcDbEntity
  8
s001-#def-active-grp
  6
CONTINUOUS
 62
    7
420
    0
370
   40
100
AcDbVertex
100
AcDb2dVertex
 10
-108.2210493827161
 20
75.79269135802467
 30
0
  0
SEQEND
  5
44
100
AcDbEntity
  8
s001-#def-active-grp
  6
CONTINUOUS
 62
    7
420
    0
370
   40
  0
ARC
  5
45
100
AcDbEntity
  8
s001-#def-active-grp
  6
CONTINUOUS
 62
    7
420
    0
370
   40
100
AcDbCircle
 10
-90.22104938271607
 20
50.79269135802467
 40
1.5
100
AcDbArc
 50
-90
 51
0
  0
ARC
  5
46
100
AcDbEntity
  8
s001-#def-active-grp
  6
CONTINUOUS
 62
    7
420
    0
370
   40
100
AcDbCircle
 10
-90.22104938271607
 20
50.79269135802468
 40
1.500000000000014
100
AcDbArc
 50
-179.9999999999995
 51
-90
  0
ARC
  5
47
100
AcDbEntity
  8
s001-#def-active-grp
  6
CONTINUOUS
 62
    7
420
    0
370
   40
100
AcDbCircle
 10
-90.22104938271607
 20
50.79269135802465
 40
1.5
100
AcDbArc
 50
90
 51
179.9999999999995
  0
ARC
  5
48
100
AcDbEntity
  8
s001-#def-active-grp
  6
CONTINUOUS
 62
    7
420
    0
370
   40
100
AcDbCircle
 10
-90.22104938271607
 20
50.79269135802467
 40
1.5
100
AcDbArc
 50
0
 51
90
  0
ARC
  5
49
100
AcDbEntity
  8
s001-#def-active-grp
  6
CONTINUOUS
 62
    7
420
    0
370
   40
100
AcDbCircle
 10
35.27895061728394
 20
50.79269135802467
 40
1.499999999999993
100
AcDbArc
 50
-90.00000000000028
 51
0
  0
ARC
  5
4A
100
AcDbEntity
  8
s001-#def-active-grp
  6
CONTINUOUS
 62
    7
420
    0
370
   40
100
AcDbCircle
 10
35.27895061728393
 20
50.79269135802467
 40
1.5
100
AcDbArc
 50
180
 51
-89.99999999999973
  0
ARC
  5
4B
100
AcDbEntity
  8
s001-#def-active-grp
  6
CONTINUOUS
 62
    7
420
    0
370
   40
100
AcDbCircle
 10
35.27895061728393
 20
50.79269135802467
 40
1.5
100
AcDbArc
 50
90
 51
180
  0
ARC
  5
4C
100
AcDbEntity
  8
s001-#def-active-grp
  6
CONTINUOUS
 62
    7
420
    0
370
   40
100
AcDbCircle
 10
35.27895061728393
 20
50.79269135802467
 40
1.5
100
AcDbArc
 50
0
 51
90
  0
ARC
  5
4D
100
AcDbEntity
  8
s001-#def-active-grp
  6
CONTINUOUS
 62
    7
420
    0
370
   40
100
AcDbCircle
 10
-90.22104938271607
 20
-32.20730864197533
 40
1.5
100
AcDbArc
 50
-90
 51
0
  0
ARC
  5
4E
100
AcDbEntity
  8
s001-#def-active-grp
  6
CONTINUOUS
 62
    7
420
    0
370
   40
100
AcDbCircle
 10
-90.22104938271607
 20
-32.20730864197532
 40
1.500000000000014
100
AcDbArc
 50
-179.9999999999995
 51
-90
  0
ARC
  5
4F
100
AcDbEntity
  8
s001-#def-active-grp
  6
CONTINUOUS
 62
    7
420
    0
370
   40
100
AcDbCircle
 10
-90.22104938271607
 20
-32.20730864197535
 40
1.5
100
AcDbArc
 50
90
 51
179.9999999999995
  0
ARC
  5
50
100
AcDbEntity
  8
s001-#def-active-grp
  6
CONTINUOUS
 62
    7
420
    0
370
   40
100
AcDbCircle
 10
-90.22104938271607
 20
-32.20730864197533
 40
1.499999999999996
100
AcDbArc
 50
0
 51
90
  0
ARC
  5
51
100
AcDbEntity
  8
s001-#def-active-grp
  6
CONTINUOUS
 62
    7
420
    0
370
   40
100
AcDbCircle
 10
35.27895061728393
 20
-32.20730864197533
 40
1.5
100
AcDbArc
 50
-90
 51
0
  0
ARC
  5
52
100
AcDbEntity
  8
s001-#def-active-grp
  6
CONTINUOUS
 62
    7
420
    0
370
   40
100
AcDbCircle
 10
35.27895061728393
 20
-32.20730864197533
 40
1.5
100
AcDbArc
 50
180
 51
-90
  0
ARC
  5
53
100
AcDbEntity
  8
s001-#def-active-grp
  6
CONTINUOUS
 62
    7
420
    0
370
   40
100
AcDbCircle
 10
35.27895061728393
 20
-32.20730864197533
 40
1.499999999999993
100
AcDbArc
 50
89.99999999999973
 51
180
  0
ARC
  5
54
100
AcDbEntity
  8
s001-#def-active-grp
  6
CONTINUOUS
 62
    7
420
    0
370
   40
100
AcDbCircle
 10
35.27895061728394
 20
-32.20730864197533
 40
1.499999999999996
100
AcDbArc
 50
0
 51
90.00000000000028
  0
ARC
  5
55
100
AcDbEntity
  8
s001-#def-active-grp
  6
CONTINUOUS
 62
    7
420
    0
370
   40
100
AcDbCircle
 10
18.2863441396509
 20
70.99200000000003
 40
2.5
100
AcDbArc
 50
-90
 51
0
  0
ARC
  5
56
100
AcDbEntity
  8
s001-#def-active-grp
  6
CONTINUOUS
 62
    7
420
    0
370
   40
100
AcDbCircle
 10
18.2863441396509
 20
70.99200000000003
 40
2.5
100
AcDbArc
 50
180
 51
-90
  0
ARC
  5
57
100
AcDbEntity
  8
s001-#def-active-grp
  6
CONTINUOUS
 62
    7
420
    0
370
   40
100
AcDbCircle
 10
18.2863441396509
 20
70.99200000000003
 40
2.5
100
AcDbArc
 50
90
 51
180
  0
ARC
  5
58
100
AcDbEntity
  8
s001-#def-active-grp
  6
CONTINUOUS
 62
    7
420
    0
370
   40
100
AcDbCircle
 10
18.2863441396509
 20
70.99200000000003
 40
2.5
100
AcDbArc
 50
0
 51
90
  0
ARC
  5
59
100
AcDbEntity
  8
s001-#def-active-grp
  6
CONTINUOUS
 62
    7
420
    0
370
   40
100
AcDbCircle
 10
28.2863441396509
 20
70.99200000000003
 40
2.5
100
AcDbArc
 50
-90
 51
0
  0
ARC
  5
5A
100
AcDbEntity
  8
s001-#def-active-grp
  6
CONTINUOUS
 62
    7
420
    0
370
   40
100
AcDbCircle
 10
28.2863441396509
 20
70.99200000000003
 40
2.5
100
AcDbArc
 50
180
 51
-90
  0
ARC
  5
5B
100
AcDbEntity
  8
s001-#def-active-grp
  6
CONTINUOUS
 62
    7
420
    0
370
   40
100
AcDbCircle
 10
28.2863441396509
 20
70.99200000000003
 40
2.5
100
AcDbArc
 50
90
 51
180
  0
ARC
  5
5C
100
AcDbEntity
  8
s001-#def-active-grp
  6
CONTINUOUS
 62
    7
420
    0
370
   40
100
AcDbCircle
 10
28.2863441396509
 20
70.99200000000003
 40
2.5
100
AcDbArc
 50
0
 51
90
  0
ARC
  5
5D
100
AcDbEntity
  8
s001-#def-active-grp
  6
CONTINUOUS
 62
    7
420
    0
370
   40
100
AcDbCircle
 10
-67.8270922693266
 20
70.99200000000003
 40
2.5
100
AcDbArc
 50
-90
 51
0
  0
ARC
  5
5E
100
AcDbEntity
  8
s001-#def-active-grp
  6
CONTINUOUS
 62
    7
420
    0
370
   40
100
AcDbCircle
 10
-67.8270922693266
 20
70.99200000000003
 40
2.5
100
AcDbArc
 50
180
 51
-90
  0
ARC
  5
5F
100
AcDbEntity
  8
s001-#def-active-grp
  6
CONTINUOUS
 62
    7
420
    0
370
   40
100
AcDbCircle
 10
-67.8270922693266
 20
70.99200000000003
 40
2.5
100
AcDbArc
 50
90
 51
180
  0
ARC
  5
60
100
AcDbEntity
  8
s001-#def-active-grp
  6
CONTINUOUS
 62
    7
420
    0
370
   40
100
AcDbCircle
 10
-67.8270922693266
 20
70.99200000000003
 40
2.5
100
AcDbArc
 50
0
 51
90
  0
ARC
  5
61
100
AcDbEntity
  8
s001-#def-active-grp
  6
CONTINUOUS
 62
    7
420
    0
370
   40
100
AcDbCircle
 10
-57.8270922693266
 20
70.99200000000003
 40
2.5
100
AcDbArc
 50
-90
 51
0
  0
ARC
  5
62
100
AcDbEntity
  8
s001-#def-active-grp
  6
CONTINUOUS
 62
    7
420
    0
370
   40
100
AcDbCircle
 10
-57.8270922693266
 20
70.99200000000003
 40
2.5
100
AcDbArc
 50
180
 51
-90
  0
ARC
  5
63
100
AcDbEntity
  8
s001-#def-active-grp
  6
CONTINUOUS
 62
    7
420
    0
370
   40
100
AcDbCircle
 10
-57.8270922693266
 20
70.99200000000003
 40
2.5
100
AcDbArc
 50
90
 51
180
  0
ARC
  5
64
100
AcDbEntity
  8
s001-#def-active-grp
  6
CONTINUOUS
 62
    7
420
    0
370
   40
100
AcDbCircle
 10
-57.8270922693266
 20
70.99200000000003
 40
2.5
100
AcDbArc
 50
0
 51
90
  0
ARC
  5
65
100
AcDbEntity
  8
s001-#def-active-grp
  6
CONTINUOUS
 62
    7
420
    0
370
   40
100
AcDbCircle
 10
7.62890773067339
 20
-52.84799999999986
 40
2.5
100
AcDbArc
 50
-90
 51
0
  0
ARC
  5
66
100
AcDbEntity
  8
s001-#def-active-grp
  6
CONTINUOUS
 62
    7
420
    0
370
   40
100
AcDbCircle
 10
7.62890773067339
 20
-52.84799999999986
 40
2.5
100
AcDbArc
 50
180
 51
-90
  0
ARC
  5
67
100
AcDbEntity
  8
s001-#def-active-grp
  6
CONTINUOUS
 62
    7
420
    0
370
   40
100
AcDbCircle
 10
7.62890773067339
 20
-52.84799999999986
 40
2.5
100
AcDbArc
 50
90
 51
180
  0
ARC
  5
68
100
AcDbEntity
  8
s001-#def-active-grp
  6
CONTINUOUS
 62
    7
420
    0
370
   40
100
AcDbCircle
 10
7.62890773067339
 20
-52.84799999999986
 40
2.5
100
AcDbArc
 50
0
 51
90
  0
ARC
  5
69
100
AcDbEntity
  8
s001-#def-active-grp
  6
CONTINUOUS
 62
    7
420
    0
370
   40
100
AcDbCircle
 10
17.62890773067339
 20
-52.84799999999986
 40
2.5
100
AcDbArc
 50
-90
 51
0
  0
ARC
  5
6A
100
AcDbEntity
  8
s001-#def-active-grp
  6
CONTINUOUS
 62
    7
420
    0
370
   40
100
AcDbCircle
 10
17.62890773067339
 20
-52.84799999999986
 40
2.5
100
AcDbArc
 50
180
 51
-90
  0
ARC
  5
6B
100
AcDbEntity
  8
s001-#def-active-grp
  6
CONTINUOUS
 62
    7
420
    0
370
   40
100
AcDbCircle
 10
17.62890773067339
 20
-52.84799999999986
 40
2.5
100
AcDbArc
 50
90
 51
180
  0
ARC
  5
6C
100
AcDbEntity
  8
s001-#def-active-grp
  6
CONTINUOUS
 62
    7
420
    0
370
   40
100
AcDbCircle
 10
17.62890773067339
 20
-52.84799999999986
 40
2.5
100
AcDbArc
 50
0
 51
90
  0
ARC
  5
6D
100
AcDbEntity
  8
s001-#def-active-grp
  6
CONTINUOUS
 62
    7
420
    0
370
   40
100
AcDbCircle
 10
-79.05909226932656
 20
-52.84799999999986
 40
2.5
100
AcDbArc
 50
-90
 51
0
  0
ARC
  5
6E
100
AcDbEntity
  8
s001-#def-active-grp
  6
CONTINUOUS
 62
    7
420
    0
370
   40
100
AcDbCircle
 10
-79.05909226932656
 20
-52.84799999999986
 40
2.5
100
AcDbArc
 50
180
 51
-90
  0
ARC
  5
6F
100
AcDbEntity
  8
s001-#def-active-grp
  6
CONTINUOUS
 62
    7
420
    0
370
   40
100
AcDbCircle
 10
-79.05909226932656
 20
-52.84799999999986
 40
2.5
100
AcDbArc
 50
90
 51
180
  0
ARC
  5
70
100
AcDbEntity
  8
s001-#def-active-grp
  6
CONTINUOUS
 62
    7
420
    0
370
   40
100
AcDbCircle
 10
-79.05909226932656
 20
-52.84799999999986
 40
2.5
100
AcDbArc
 50
0
 51
90
  0
ARC
  5
71
100
AcDbEntity
  8
s001-#def-active-grp
  6
CONTINUOUS
 62
    7
420
    0
370
   40
100
AcDbCircle
 10
-69.05909226932656
 20
-52.84799999999986
 40
2.5
100
AcDbArc
 50
-90
 51
0
  0
ARC
  5
72
100
AcDbEntity
  8
s001-#def-active-grp
  6
CONTINUOUS
 62
    7
420
    0
370
   40
100
AcDbCircle
 10
-69.05909226932656
 20
-52.84799999999986
 40
2.5
100
AcDbArc
 50
180
 51
-90
  0
ARC
  5
73
100
AcDbEntity
  8
s001-#def-active-grp
  6
CONTINUOUS
 62
    7
420
    0
370
   40
100
AcDbCircle
 10
-69.05909226932656
 20
-52.84799999999986
 40
2.5
100
AcDbArc
 50
90
 51
180
  0
ARC
  5
74
100
AcDbEntity
  8
s001-#def-active-grp
  6
CONTINUOUS
 62
    7
420
    0
370
   40
100
AcDbCircle
 10
-69.05909226932656
 20
-52.84799999999986
 40
2.5
100
AcDbArc
 50
0
 51
90
  0
DIMENSION
  5
75
100
AcDbEntity
  8
dimensions
  6
CONTINUOUS
 62
    6
420
16718335
370
   30
100
AcDbDimension
 10
-28.91104938271607
 20
51.16069135802466
 30
0
 11
-28.91104938271607
 21
51.16069135802466
 31
0
 70
   33
  1
125.50
 71
    5
  3
STANDARD
 53
0
210
0
220
0
230
1
 42
125.5
100
AcDbAlignedDimension
 13
-90.22104938271607
 23
50.79269135802467
 33
0
 14
35.27895061728393
 24
50.79269135802467
 34
0
  0
DIMENSION
  5
76
100
AcDbEntity
  8
dimensions
  6
CONTINUOUS
 62
    6
420
16718335
370
   30
100
AcDbDimension
 10
-89.85304938271608
 20
8.140691358024664
 30
0
 11
-89.85304938271608
 21
8.140691358024664
 31
0
 70
   33
  1
83.00
 71
    5
  3
STANDARD
 53
0
210
0
220
0
230
1
 42
83
100
AcDbAlignedDimension
 13
-90.22104938271607
 23
50.79269135802467
 33
0
 14
-90.22104938271607
 24
-32.20730864197533
 34
0
  0
DIMENSION
  5
77
100
AcDbEntity
  8
dimensions
  6
CONTINUOUS
 62
    6
420
16718335
370
   30
100
AcDbDimension
 10
44.27895061728393
 20
50.79269135802467
 30
0
 11
44.27895061728393
 21
50.79269135802467
 31
0
 70
   32
  1
18.00
 71
    5
  3
STANDARD
 53
0
210
0
220
0
230
1
 42
18
100
AcDbAlignedDimension
 13
35.27895061728393
 23
50.79269135802467
 33
0
 14
53.27895061728393
 24
50.79269135802467
 34
0
100
AcDbRotatedDimension
  0
DIMENSION
  5
78
100
AcDbEntity
  8
dimensions
  6
CONTINUOUS
 62
    6
420
16718335
370
   30
100
AcDbDimension
 10
34.49973652845883
 20
49.51096385040987
 30
0
 11
29.67056261431183
 21
41.56746650663005
 31
0
 70
   35
  1
⌀3.00
 71
    5
  3
STANDARD
 53
0
210
0
220
0
230
1
 42
3
100
AcDbDiametricDimension
 15
36.05816470610904
 25
52.07441886563947
 35
0
 40
0
  0
DIMENSION
  5
79
100
AcDbEntity
  8
dimensions
  6
CONTINUOUS
 62
    6
420
16718335
370
   30
100
AcDbDimension
 10
-126.5810493827161
 20
77.00069135802467
 30
0
 11
-126.5810493827161
 21
77.00069135802467
 31
0
 70
   32
  1
18.00
 71
    5
  3
STANDARD
 53
0
210
0
220
0
230
1
 42
18
100
AcDbAlignedDimension
 13
-90.22104938271607
 23
50.79269135802467
 33
0
 14
-108.2210493827161
 24
75.79269135802467
 34
0
 50
180
100
AcDbRotatedDimension
  0
DIMENSION
  5
7A
100
AcDbEntity
  8
dimensions
  6
CONTINUOUS
 62
    6
420
16718335
370
   30
100
AcDbDimension
 10
-90.22104938271607
 20
63.29269135802467
 30
0
 11
-90.22104938271607
 21
63.29269135802467
 31
0
 70
   32
  1
25.00
 71
    5
  3
STANDARD
 53
0
210
0
220
0
230
1
 42
25
100
AcDbAlignedDimension
 13
-90.22104938271607
 23
50.79269135802467
 33
0
 14
-90.22104938271607
 24
75.79269135802467
 34
0
 50
90
100
AcDbRotatedDimension
  0
DIMENSION
  5
7B
100
AcDbEntity
  8
dimensions
  6
CONTINUOUS
 62
    6
420
16718335
370
   30
100
AcDbDimension
 10
-90.22104938271607
 20
-44.70730864197533
 30
0
 11
-90.22104938271607
 21
-44.70730864197533
 31
0
 70
   32
  1
25.00
 71
    5
  3
STANDARD
 53
0
210
0
220
0
230
1
 42
25
100
AcDbAlignedDimension
 13
-90.22104938271607
 23
-32.20730864197533
 33
0
 14
-90.22104938271607
 24
-57.20730864197533
 34
0
 50
270
100
AcDbRotatedDimension
  0
DIMENSION
  5
7C
100
AcDbEntity
  8
dimensions
  6
CONTINUOUS
 62
    6
420
16718335
370
   30
100
AcDbDimension
 10
-15.95104938271607
 20
101.1366913580247
 30
0
 11
-15.95104938271607
 21
101.1366913580247
 31
0
 70
   33
  1
161.50 REF
 71
    5
  3
STANDARD
 53
0
210
0
220
0
230
1
 42
161.5
100
AcDbAlignedDimension
 13
-108.2210493827161
 23
75.79269135802467
 33
0
 14
53.27895061728393
 24
75.79269135802467
 34
0
  0
DIMENSION
  5
7D
100
AcDbEntity
  8
dimensions
  6
CONTINUOUS
 62
    6
420
16718335
370
   30
100
AcDbDimension
 10
81.21495061728393
 20
11.59669135802466
 30
0
 11
81.21495061728393
 21
11.59669135802466
 31
0
 70
   33
  1
133.00 REF
 71
    5
  3
STANDARD
 53
0
210
0
220
0
230
1
 42
133
100
AcDbAlignedDimension
 13
53.27895061728393
 23
75.79269135802467
 33
0
 14
53.27895061728393
 24
-57.20730864197533
 34
0
  0
DIMENSION
  5
7E
100
AcDbEntity
  8
dimensions
  6
CONTINUOUS
 62
    6
420
16718335
370
   30
100
AcDbDimension
 10
20.78614387530164
 20
71.02364303462852
 30
0
 11
41.0383441396509
 21
71.28000000000003
 31
0
 70
   35
  1
⌀5.00
 71
    5
  3
STANDARD
 53
0
210
0
220
0
230
1
 42
5
100
AcDbDiametricDimension
 15
15.78654440400016
 25
70.96035696537155
 35
0
 40
0
  0
DIMENSION
  5
7F
100
AcDbEntity
  8
dimensions
  6
CONTINUOUS
 62
    6
420
16718335
370
   30
100
AcDbDimension
 10
24.7263441396509
 20
91.44000000000003
 30
0
 11
24.7263441396509
 21
91.44000000000003
 31
0
 70
   33
  1
10.00
 71
    5
  3
STANDARD
 53
0
210
0
220
0
230
1
 42
10
100
AcDbAlignedDimension
 13
18.2863441396509
 23
70.99200000000003
 33
0
 14
28.2863441396509
 24
70.99200000000003
 34
0
  0
DIMENSION
  5
80
100
AcDbEntity
  8
dimensions
  6
CONTINUOUS
 62
    6
420
16718335
370
   30
100
AcDbDimension
 10
-65.32729253367586
 20
71.02364303462852
 30
0
 11
-45.0750922693266
 21
71.28000000000003
 31
0
 70
   35
  1
⌀5.00
 71
    5
  3
STANDARD
 53
0
210
0
220
0
230
1
 42
5
100
AcDbDiametricDimension
 15
-70.32689200497734
 25
70.96035696537155
 35
0
 40
0
  0
DIMENSION
  5
81
100
AcDbEntity
  8
dimensions
  6
CONTINUOUS
 62
    6
420
16718335
370
   30
100
AcDbDimension
 10
-61.3870922693266
 20
91.44000000000003
 30
0
 11
-61.3870922693266
 21
91.44000000000003
 31
0
 70
   33
  1
10.00
 71
    5
  3
STANDARD
 53
0
210
0
220
0
230
1
 42
10
100
AcDbAlignedDimension
 13
-67.8270922693266
 23
70.99200000000003
 33
0
 14
-57.8270922693266
 24
70.99200000000003
 34
0
  0
DIMENSION
  5
82
100
AcDbEntity
  8
dimensions
  6
CONTINUOUS
 62
    6
420
16718335
370
   30
100
AcDbDimension
 10
10.12870746632413
 20
-52.81635696537137
 30
0
 11
30.38090773067339
 21
-52.55999999999986
 31
0
 70
   35
  1
⌀5.00
 71
    5
  3
STANDARD
 53
0
210
0
220
0
230
1
 42
5
100
AcDbDiametricDimension
 15
5.12910799502265
 25
-52.87964303462834
 35
0
 40
0
  0
DIMENSION
  5
83
100
AcDbEntity
  8
dimensions
  6
CONTINUOUS
 62
    6
420
16718335
370
   30
100
AcDbDimension
 10
14.06890773067339
 20
-32.39999999999986
 30
0
 11
14.06890773067339
 21
-32.39999999999986
 31
0
 70
   33
  1
10.00
 71
    5
  3
STANDARD
 53
0
210
0
220
0
230
1
 42
10
100
AcDbAlignedDimension
 13
7.62890773067339
 23
-52.84799999999986
 33
0
 14
17.62890773067339
 24
-52.84799999999986
 34
0
  0
DIMENSION
  5
84
100
AcDbEntity
  8
dimensions
  6
CONTINUOUS
 62
    6
420
16718335
370
   30
100
AcDbDimension
 10
-76.5592925336758
 20
-52.81635696537137
 30
0
 11
-56.30709226932655
 21
-52.55999999999986
 31
0
 70
   35
  1
⌀5.00
 71
    5
  3
STANDARD
 53
0
210
0
220
0
230
1
 42
5
100
AcDbDiametricDimension
 15
-81.55889200497728
 25
-52.87964303462834
 35
0
 40
0
  0
DIMENSION
  5
85
100
AcDbEntity
  8
dimensions
  6
CONTINUOUS
 62
    6
420
16718335
370
   30
100
AcDbDimension
 10
-72.61909226932656
 20
-32.39999999999986
 30
0
 11
-72.61909226932656
 21
-32.39999999999986
 31
0
 70
   33
  1
10.00
 71
    5
  3
STANDARD
 53
0
210
0
220
0
230
1
 42
10
100
AcDbAlignedDimension
 13
-79.05909226932656
 23
-52.84799999999986
 33
0
 14
-69.05909226932656
 24
-52.84799999999986
 34
0
  0
ENDSEC
  0
SECTION
  2
OBJECTS
  0
DICTIONARY
  5
C
330
0
100
AcDbDictionary
281
    1
  3
ACAD_GROUP
350
D
  0
DICTIONARY
  5
D
330
C
100
AcDbDictionary
281
    1
  0
ENDSEC
  0
EOF
